<svg xmlns="http://www.w3.org/2000/svg" xmlns:xlink="http://www.w3.org/1999/xlink" viewBox="0,0,256,256" width="100px" height="100px" fill-rule="nonzero"><g transform=""><g fill="#43d9ad" fill-rule="nonzero" stroke="none" stroke-width="1" stroke-linecap="butt" stroke-linejoin="miter" stroke-miterlimit="10" stroke-dasharray="" stroke-dashoffset="0" font-family="none" font-weight="none" font-size="none" text-anchor="none" style="mix-blend-mode: normal"><g transform="scale(3.2,3.2)"><path d="M40,49.007l-24.286,24.286l-9.007,-9.007l24.286,-24.286l-24.286,-24.286l9.007,-9.007l24.286,24.286l24.286,-24.286l9.007,9.007l-24.286,24.286l24.286,24.286l-9.007,9.007z"></path><path d="M15.714,7.414l23.578,23.578l0.708,0.708l0.707,-0.707l23.579,-23.579l8.3,8.3l-23.579,23.579l-0.707,0.707l0.707,0.707l23.578,23.579l-8.3,8.3l-23.578,-23.579l-0.707,-0.707l-0.707,0.707l-23.579,23.579l-8.3,-8.3l23.579,-23.579l0.707,-0.707l-0.707,-0.707l-23.579,-23.579l8.3,-8.3M64.286,6l-24.286,24.286l-24.286,-24.286l-9.714,9.714l24.286,24.286l-24.286,24.286l9.714,9.714l24.286,-24.286l24.286,24.286l9.714,-9.714l-24.286,-24.286l24.286,-24.286l-9.714,-9.714z"></path></g></g><g fill="none" fill-rule="nonzero" stroke="none" stroke-width="none" stroke-linecap="butt" stroke-linejoin="miter" stroke-miterlimit="10" stroke-dasharray="" stroke-dashoffset="0" font-family="none" font-weight="none" font-size="none" text-anchor="none" style="mix-blend-mode: normal"><g fill="#000000" stroke="none" stroke-width="1"><path d="M-31.985,-19.225l7.68,14.84l7.72,-14.84h4.43l-10.2,18.54v11.03h-3.9v-11.03l-10.2,-18.54zM7.095,10.345h-3.94c-0.21333,-0.43333 -0.38667,-1.20667 -0.52,-2.32v0c-1.74667,1.82 -3.83333,2.73 -6.26,2.73v0c-2.16667,0 -3.94333,-0.61333 -5.33,-1.84c-1.38667,-1.22667 -2.08,-2.78 -2.08,-4.66v0c0,-2.29333 0.87,-4.07333 2.61,-5.34c1.74,-1.26667 4.18667,-1.9 7.34,-1.9v0h3.66v-1.72c0,-1.31333 -0.39333,-2.36 -1.18,-3.14c-0.78667,-0.78 -1.94667,-1.17 -3.48,-1.17v0c-1.34,0 -2.46333,0.34 -3.37,1.02c-0.90667,0.67333 -1.36,1.49333 -1.36,2.46v0h-3.78c0,-1.1 0.39,-2.16 1.17,-3.18c0.78,-1.02667 1.83667,-1.83667 3.17,-2.43c1.33333,-0.59333 2.8,-0.89 4.4,-0.89v0c2.53333,0 4.51667,0.63 5.95,1.89c1.43333,1.26667 2.17667,3.01333 2.23,5.24v0v10.11c0,2.02 0.25667,3.62333 0.77,4.81v0zM-3.075,7.485v0c1.18,0 2.29667,-0.30667 3.35,-0.92c1.05333,-0.60667 1.82,-1.39667 2.3,-2.37v0v-4.51h-2.95c-4.60667,0 -6.91,1.34667 -6.91,4.04v0c0,1.18 0.39333,2.1 1.18,2.76c0.78667,0.66667 1.79667,1 3.03,1zM13.625,-11.635l5.48,16.48l5.12,-16.48h4.02l-8.84,25.37c-1.36667,3.66 -3.54,5.49 -6.52,5.49v0l-0.71,-0.06l-1.4,-0.27v-3.05l1.02,0.09c1.27333,0 2.26333,-0.26 2.97,-0.78c0.71333,-0.51333 1.3,-1.45333 1.76,-2.82v0l0.83,-2.23l-7.84,-21.74zM36.085,-19.225l-0.28,21.22h-3.4l-0.26,-21.22zM32.005,8.455v0c0,-0.60667 0.18667,-1.11667 0.56,-1.53c0.37333,-0.41333 0.92333,-0.62 1.65,-0.62c0.73333,0 1.29,0.20667 1.67,0.62c0.38,0.41333 0.57,0.92333 0.57,1.53c0,0.61333 -0.19,1.11667 -0.57,1.51c-0.38,0.4 -0.93667,0.6 -1.67,0.6c-0.72667,0 -1.27667,-0.2 -1.65,-0.6c-0.37333,-0.39333 -0.56,-0.89667 -0.56,-1.51z"></path></g></g></g></svg>